<?xml version="1.0" encoding="UTF-8"?>
<!DOCTYPE svg PUBLIC "-//W3C//DTD SVG 1.1//EN" "http://www.w3.org/Graphics/SVG/1.1/DTD/svg11.dtd">
<svg xmlns="http://www.w3.org/2000/svg" version="1.1" width="60px" height="50px" style="shape-rendering:geometricPrecision; text-rendering:geometricPrecision; image-rendering:optimizeQuality; fill-rule:evenodd; clip-rule:evenodd" xmlns:xlink="http://www.w3.org/1999/xlink">
<g><path style="opacity:1" fill="#7a76de" d="M -0.5,-0.5 C 1.83333,-0.5 4.16667,-0.5 6.5,-0.5C 8.57825,2.08382 10.9116,4.58382 13.5,7C 12.5842,7.27842 11.9175,7.77842 11.5,8.5C 10.5876,9.7382 10.4209,11.0715 11,12.5C 14.0289,16.5615 16.5289,20.8949 18.5,25.5C 15.9683,25.1714 14.9683,24.0048 15.5,22C 12.4369,20.9339 10.9369,18.7672 11,15.5C 6.67292,10.6331 2.83958,5.96648 -0.5,1.5C -0.5,0.833333 -0.5,0.166667 -0.5,-0.5 Z"/></g>
<g><path style="opacity:1" fill="#7585d9" d="M 6.5,-0.5 C 10.1667,-0.5 13.8333,-0.5 17.5,-0.5C 18.6253,1.12879 19.9586,2.62879 21.5,4C 21.0426,4.41395 20.7093,4.91395 20.5,5.5C 21.0505,7.65676 21.7171,9.65676 22.5,11.5C 25.5,16.8333 28.5,22.1667 31.5,27.5C 31.7373,28.791 31.404,29.791 30.5,30.5C 29.5423,29.0384 28.3756,27.7051 27,26.5C 26.8706,23.9973 25.8706,21.9973 24,20.5C 23.5172,21.448 23.3505,22.448 23.5,23.5C 20.4411,19.0635 17.6078,14.3968 15,9.5C 13.9887,8.66337 12.8221,8.33003 11.5,8.5C 11.9175,7.77842 12.5842,7.27842 13.5,7C 10.9116,4.58382 8.57825,2.08382 6.5,-0.5 Z"/></g>
<g><path style="opacity:1" fill="#6797cf" d="M 17.5,-0.5 C 20.5,-0.5 23.5,-0.5 26.5,-0.5C 28.2917,2.0237 29.9583,4.69037 31.5,7.5C 28.6146,7.1936 25.9479,7.52693 23.5,8.5C 22.596,9.20895 22.2627,10.209 22.5,11.5C 21.7171,9.65676 21.0505,7.65676 20.5,5.5C 20.7093,4.91395 21.0426,4.41395 21.5,4C 19.9586,2.62879 18.6253,1.12879 17.5,-0.5 Z"/></g>
<g><path style="opacity:1" fill="#61a1ca" d="M 26.5,-0.5 C 28.5,-0.5 30.5,-0.5 32.5,-0.5C 34.5,2.16667 36.5,4.83333 38.5,7.5C 36.1667,7.5 33.8333,7.5 31.5,7.5C 29.9583,4.69037 28.2917,2.0237 26.5,-0.5 Z"/></g>
<g><path style="opacity:1" fill="#5eb1c6" d="M 32.5,-0.5 C 34.8333,-0.5 37.1667,-0.5 39.5,-0.5C 42.2394,2.23273 44.5727,5.23273 46.5,8.5C 44.2254,9.11123 42.5588,10.4446 41.5,12.5C 40.8897,10.5659 39.8897,8.89928 38.5,7.5C 36.5,4.83333 34.5,2.16667 32.5,-0.5 Z"/></g>
<g><path style="opacity:1" fill="#54bcbf" d="M 39.5,-0.5 C 42.1667,-0.5 44.8333,-0.5 47.5,-0.5C 50.8119,5.16565 54.8119,10.1656 59.5,14.5C 59.5,17.1667 59.5,19.8333 59.5,22.5C 55.4444,18.1567 51.4444,13.8234 47.5,9.5C 47.5,8.83333 47.1667,8.5 46.5,8.5C 44.5727,5.23273 42.2394,2.23273 39.5,-0.5 Z"/></g>
<g><path style="opacity:1" fill="#50c5bc" d="M 47.5,-0.5 C 51.5,-0.5 55.5,-0.5 59.5,-0.5C 59.5,4.5 59.5,9.5 59.5,14.5C 54.8119,10.1656 50.8119,5.16565 47.5,-0.5 Z"/></g>
<g><path style="opacity:1" fill="#7e6ae3" d="M -0.5,1.5 C 2.83958,5.96648 6.67292,10.6331 11,15.5C 10.9369,18.7672 12.4369,20.9339 15.5,22C 14.9683,24.0048 15.9683,25.1714 18.5,25.5C 18.5858,26.4959 18.2524,27.3292 17.5,28C 19.932,28.7428 21.5987,30.2428 22.5,32.5C 23.5,33.8333 24.5,35.1667 25.5,36.5C 25.8333,37.1667 26.1667,37.8333 26.5,38.5C 26.8333,39.5 27.5,40.1667 28.5,40.5C 33.0207,42.0126 36.354,45.0126 38.5,49.5C 35.8333,49.5 33.1667,49.5 30.5,49.5C 20.6423,37.1375 10.309,25.1375 -0.5,13.5C -0.5,9.5 -0.5,5.5 -0.5,1.5 Z"/></g>
<g><path style="opacity:1" fill="#f5f7fa" d="M 23.5,8.5 C 28.1667,8.5 32.8333,8.5 37.5,8.5C 37.5,9.5 37.5,10.5 37.5,11.5C 34.6946,12.3195 31.6946,12.8195 28.5,13C 30.9845,16.8137 33.3178,20.6471 35.5,24.5C 35.5,24.8333 35.5,25.1667 35.5,25.5C 35.1612,30.6164 33.8279,31.2831 31.5,27.5C 28.5,22.1667 25.5,16.8333 22.5,11.5C 22.2627,10.209 22.596,9.20895 23.5,8.5 Z"/></g>
<g><path style="opacity:1" fill="#eeeef7" d="M 11.5,8.5 C 12.8221,8.33003 13.9887,8.66337 15,9.5C 17.6078,14.3968 20.4411,19.0635 23.5,23.5C 23.2153,27.8111 21.5487,28.4778 18.5,25.5C 16.5289,20.8949 14.0289,16.5615 11,12.5C 10.4209,11.0715 10.5876,9.7382 11.5,8.5 Z"/></g>
<g><path style="opacity:1" fill="#83b5d3" d="M 23.5,8.5 C 25.9479,7.52693 28.6146,7.1936 31.5,7.5C 33.8333,7.5 36.1667,7.5 38.5,7.5C 39.8897,8.89928 40.8897,10.5659 41.5,12.5C 41.6716,13.4916 41.3382,14.1583 40.5,14.5C 40.1898,12.8564 39.1898,11.8564 37.5,11.5C 37.5,10.5 37.5,9.5 37.5,8.5C 32.8333,8.5 28.1667,8.5 23.5,8.5 Z"/></g>
<g><path style="opacity:1" fill="#5daec6" d="M 47.5,9.5 C 51.4444,13.8234 55.4444,18.1567 59.5,22.5C 59.5,25.8333 59.5,29.1667 59.5,32.5C 55.5608,28.386 51.7275,24.0527 48,19.5C 47.5172,18.552 47.3505,17.552 47.5,16.5C 46.5,16.5 45.5,16.5 44.5,16.5C 46.3122,14.5395 47.3122,12.2061 47.5,9.5 Z"/></g>
<g><path style="opacity:1" fill="#d8e7f2" d="M 46.5,8.5 C 47.1667,8.5 47.5,8.83333 47.5,9.5C 47.3122,12.2061 46.3122,14.5395 44.5,16.5C 43.5592,18.0495 42.8925,19.7162 42.5,21.5C 41.2921,22.2341 39.9587,22.5674 38.5,22.5C 37.8695,19.6845 38.5362,17.0178 40.5,14.5C 41.3382,14.1583 41.6716,13.4916 41.5,12.5C 42.5588,10.4446 44.2254,9.11123 46.5,8.5 Z"/></g>
<g><path style="opacity:1" fill="#855ae9" d="M -0.5,18.5 C 8.16667,28.8333 16.8333,39.1667 25.5,49.5C 23.8333,49.5 22.1667,49.5 20.5,49.5C 13.2725,41.3918 6.27245,33.0585 -0.5,24.5C -0.5,22.5 -0.5,20.5 -0.5,18.5 Z"/></g>
<g><path style="opacity:1" fill="#62a1cb" d="M 44.5,16.5 C 45.5,16.5 46.5,16.5 47.5,16.5C 47.3505,17.552 47.5172,18.552 48,19.5C 51.7275,24.0527 55.5608,28.386 59.5,32.5C 59.5,34.8333 59.5,37.1667 59.5,39.5C 58.5041,39.5858 57.6708,39.2524 57,38.5C 52.6767,32.3476 47.8433,26.681 42.5,21.5C 42.8925,19.7162 43.5592,18.0495 44.5,16.5 Z"/></g>
<g><path style="opacity:1" fill="#8260e7" d="M -0.5,13.5 C 10.309,25.1375 20.6423,37.1375 30.5,49.5C 28.8333,49.5 27.1667,49.5 25.5,49.5C 16.8333,39.1667 8.16667,28.8333 -0.5,18.5C -0.5,16.8333 -0.5,15.1667 -0.5,13.5 Z"/></g>
<g><path style="opacity:1" fill="#6699ce" d="M 42.5,21.5 C 47.8433,26.681 52.6767,32.3476 57,38.5C 57.6708,39.2524 58.5041,39.5858 59.5,39.5C 59.5,41.8333 59.5,44.1667 59.5,46.5C 52.9392,37.9931 45.9392,29.9931 38.5,22.5C 39.9587,22.5674 41.2921,22.2341 42.5,21.5 Z"/></g>
<g><path style="opacity:1" fill="#797add" d="M 30.5,30.5 C 29.9689,33.7668 28.9689,34.1001 27.5,31.5C 25.0313,27.4317 23.3646,27.765 22.5,32.5C 21.5987,30.2428 19.932,28.7428 17.5,28C 18.2524,27.3292 18.5858,26.4959 18.5,25.5C 21.5487,28.4778 23.2153,27.8111 23.5,23.5C 23.3505,22.448 23.5172,21.448 24,20.5C 25.8706,21.9973 26.8706,23.9973 27,26.5C 28.3756,27.7051 29.5423,29.0384 30.5,30.5 Z"/></g>
<g><path style="opacity:1" fill="#6a94d0" d="M 37.5,11.5 C 39.1898,11.8564 40.1898,12.8564 40.5,14.5C 38.5362,17.0178 37.8695,19.6845 38.5,22.5C 45.9392,29.9931 52.9392,37.9931 59.5,46.5C 59.5,47.5 59.5,48.5 59.5,49.5C 59.1667,49.5 58.8333,49.5 58.5,49.5C 51.2786,40.4293 43.7786,31.4293 36,22.5C 35.5357,23.0944 35.369,23.7611 35.5,24.5C 33.3178,20.6471 30.9845,16.8137 28.5,13C 31.6946,12.8195 34.6946,12.3195 37.5,11.5 Z"/></g>
<g><path style="opacity:1" fill="#8952ed" d="M -0.5,24.5 C 6.27245,33.0585 13.2725,41.3918 20.5,49.5C 17.1667,49.5 13.8333,49.5 10.5,49.5C 7.17929,44.8482 3.51262,40.5149 -0.5,36.5C -0.5,32.5 -0.5,28.5 -0.5,24.5 Z"/></g>
<g><path style="opacity:1" fill="#cfd4f1" d="M 35.5,25.5 C 36.6737,26.5137 37.3404,27.847 37.5,29.5C 36.2485,31.0009 35.2485,32.6675 34.5,34.5C 31.2814,34.7759 28.6148,36.1093 26.5,38.5C 26.1667,37.8333 25.8333,37.1667 25.5,36.5C 26.9313,35.2196 27.5979,33.5529 27.5,31.5C 28.9689,34.1001 29.9689,33.7668 30.5,30.5C 31.404,29.791 31.7373,28.791 31.5,27.5C 33.8279,31.2831 35.1612,30.6164 35.5,25.5 Z"/></g>
<g><path style="opacity:1" fill="#6c8dd4" d="M 58.5,49.5 C 57.1667,49.5 55.8333,49.5 54.5,49.5C 49.5246,42.1956 43.8579,35.5289 37.5,29.5C 37.3404,27.847 36.6737,26.5137 35.5,25.5C 35.5,25.1667 35.5,24.8333 35.5,24.5C 35.369,23.7611 35.5357,23.0944 36,22.5C 43.7786,31.4293 51.2786,40.4293 58.5,49.5 Z"/></g>
<g><path style="opacity:1" fill="#ebeaf6" d="M 27.5,31.5 C 27.5979,33.5529 26.9313,35.2196 25.5,36.5C 24.5,35.1667 23.5,33.8333 22.5,32.5C 23.3646,27.765 25.0313,27.4317 27.5,31.5 Z"/></g>
<g><path style="opacity:1" fill="#7183d8" d="M 37.5,29.5 C 43.8579,35.5289 49.5246,42.1956 54.5,49.5C 51.8333,49.5 49.1667,49.5 46.5,49.5C 45.9278,47.7446 45.0945,46.0779 44,44.5C 40.827,41.4661 37.6604,38.4661 34.5,35.5C 34.5,35.1667 34.5,34.8333 34.5,34.5C 35.2485,32.6675 36.2485,31.0009 37.5,29.5 Z"/></g>
<g><path style="opacity:1" fill="#bbbaee" d="M 34.5,34.5 C 34.5,34.8333 34.5,35.1667 34.5,35.5C 33.0351,36.4057 32.0351,37.739 31.5,39.5C 30.675,40.3857 29.675,40.719 28.5,40.5C 27.5,40.1667 26.8333,39.5 26.5,38.5C 28.6148,36.1093 31.2814,34.7759 34.5,34.5 Z"/></g>
<g><path style="opacity:1" fill="#7779dd" d="M 34.5,35.5 C 37.6604,38.4661 40.827,41.4661 44,44.5C 45.0945,46.0779 45.9278,47.7446 46.5,49.5C 43.8333,49.5 41.1667,49.5 38.5,49.5C 36.354,45.0126 33.0207,42.0126 28.5,40.5C 29.675,40.719 30.675,40.3857 31.5,39.5C 32.0351,37.739 33.0351,36.4057 34.5,35.5 Z"/></g>
<g><path style="opacity:1" fill="#8f45f3" d="M -0.5,36.5 C 3.51262,40.5149 7.17929,44.8482 10.5,49.5C 6.83333,49.5 3.16667,49.5 -0.5,49.5C -0.5,45.1667 -0.5,40.8333 -0.5,36.5 Z"/></g>
</svg>
